<?xml version="1.0" encoding="utf-8"?>
<!-- Generator: Adobe Illustrator 25.4.1, SVG Export Plug-In . SVG Version: 6.00 Build 0)  -->
<svg version="1.1" id="Layer_1" xmlns="http://www.w3.org/2000/svg" xmlns:xlink="http://www.w3.org/1999/xlink" x="0px" y="0px"
	 viewBox="0 0 2500 2432" style="enable-background:new 0 0 2500 2432;" xml:space="preserve">
<style type="text/css">
	.st0{fill:#ECDDBE;}
	.st1{fill:#3E4DB4;}
	.st2{fill:#1C2250;}
	.st3{fill:#161614;}
	.st4{fill:#59512C;}
	.st5{fill:#393105;}
	.st6{fill:#A19250;}
	.st7{fill:#F1CA00;}
	.st8{fill:#BE1E2D;}
</style>
<path class="st0" d="M2502.7,0v727.2l-39-262.5c-119.2,133.2,191.7-50.4-258.3-50.4c-55.6,0-332.7,72.6-385.8,69.7
	c-240.4-87-638.1,180.6-814,142.6C744.7,570.2,445.7,535.1-1.1,774.8c-3.4,1.8-0.3-7.6-0.3-11.4V0h1690.5c7.6,6.5,14.9,13.3,22,20.4
	V0H2502.7z"/>
<path class="st1" d="M1237,959.6c0,64.4-10.6,115.2-28.7,155.5V842C1226.6,876,1237,915.1,1237,959.6z"/>
<path class="st1" d="M1380.1,682.1c-3.1-5.3-6.2-10.6-9.4-15.8h0C1373.9,671.5,1377.1,676.8,1380.1,682.1z"/>
<path class="st1" d="M1676.1,775v787.6h-467.8v-68.4c154.1-113.3,254.1-295.9,254.1-501.9c0-76.7-13.6-149.7-38.7-217.2H1676.1z"/>
<g>
	<path d="M952.7,1266.8c22.3,19.3,42.2,57.2,42.2,115.3c0,83.3-0.7,150.3-0.7,170.9c0,16.6,11.2,36,42.8,29.9
		c62-20.7,119.7-50.8,171.3-88.8v-379C1159.1,1224.4,1054.1,1255.6,952.7,1266.8z M839.9,369C628.1,369,441,474.8,328.5,636.4
		c-70.1,100.7-111.2,223.2-111.2,355.2c0,226.7,121.2,425.1,302.3,533.9c3.8-2.2,10-0.9,14.6,3.6c2.5,2.3,4.1,5,4.9,7.7
		c6.8,3.8,13.7,7.4,20.7,11c2.9-2.6,8.2-3.5,13.5-1.8l0.6,0.2c0.2,0.1,0.5,0.2,0.7,0.3c3.4,1.3,6.1,3.4,7.7,5.8
		c0.1,0.2,0.2,0.4,0.3,0.5c0.1,0.1,0.1,0.2,0.2,0.4c0.1,0.2,0.2,0.5,0.3,0.8c0.1,0.2,0.2,0.3,0.2,0.5c0,0,0,0,0,0.1
		c0,0.1,0.1,0.2,0.1,0.3c0.4,1.3,0.4,2.7,0,4c0,0.1-0.1,0.2-0.1,0.3c9.9,4.5,19.9,8.7,30.1,12.7c-0.3-0.2-0.7-0.4-1-0.7
		c-0.3-0.2-0.6-0.5-0.9-0.7c-1.6-1.5-2.6-3.4-2.7-5.4c0-0.2,0-0.3,0-0.5c0-0.3,0.1-0.6,0.1-0.9c0.1-0.3,0.2-0.6,0.3-0.9
		c0.1-0.2,0.1-0.3,0.2-0.5c0.1-0.2,0.2-0.3,0.3-0.5c0.2-0.4,0.4-0.7,0.7-1.1c0.1-0.1,0.2-0.2,0.3-0.4c0.5-0.7,1.2-1.3,2-1.8
		c0.1-0.1,0.3-0.2,0.5-0.3c0.2-0.2,0.5-0.3,0.7-0.4c0.1-0.1,0.3-0.2,0.5-0.3c0.7-0.4,1.4-0.7,2.2-0.9c0.2-0.1,0.4-0.1,0.6-0.2
		c0.2-0.1,0.4-0.1,0.6-0.2c0.3-0.1,0.6-0.1,0.9-0.2c0.2,0,0.5-0.1,0.7-0.1c0.3,0,0.6-0.1,0.9-0.1c0,0,0,0,0,0c0.2,0,0.4,0,0.6,0
		c0.1,0,0.2,0,0.4,0c0.1,0,0.2,0,0.4,0c0.2,0,0.4,0,0.6,0h0.3c4.6,0,8.6,1.6,11,4c0.2,0.2,0.4,0.5,0.6,0.7c0,0,0.1,0.1,0.1,0.1
		c0.2,0.2,0.4,0.5,0.5,0.7c0,0,0,0,0,0c0.1,0.2,0.2,0.4,0.3,0.6c0,0.1,0.1,0.2,0.1,0.3c0,0.1,0.1,0.2,0.1,0.3
		c0.1,0.2,0.1,0.3,0.2,0.5c0.2,0.6,0.2,1.1,0.2,1.7c0,0.1,0,0.2,0,0.3c0,0.2,0,0.3,0,0.4c-0.1,1.7-0.9,3.3-2.2,4.6
		c-0.1,0.1-0.2,0.2-0.4,0.4c-0.2,0.2-0.4,0.4-0.7,0.6c-0.2,0.2-0.5,0.4-0.7,0.5c-0.2,0.2-0.5,0.3-0.8,0.5c-0.3,0.2-0.6,0.3-0.9,0.5
		s-0.6,0.3-1,0.4c-0.2,0.1-0.3,0.1-0.5,0.2c-0.1,0-0.2,0.1-0.3,0.1c-0.2,0.1-0.4,0.1-0.6,0.2c-0.4,0.1-0.9,0.3-1.4,0.4
		c-0.2,0-0.4,0.1-0.6,0.1c-0.2,0.1-0.4,0.1-0.5,0.1c0,0-0.1,0-0.1,0c-0.4,0.1-0.8,0.1-1.1,0.1c-0.1,0-0.2,0-0.4,0
		c-0.2,0-0.3,0-0.5,0c-0.2,0-0.5,0-0.7,0c-0.3,0-0.6,0-1,0c-0.3,0-0.5,0-0.8-0.1c0,0-0.1,0-0.1,0c-0.1,0-0.2,0-0.3,0c0,0,0,0-0.1,0
		c0,0-0.1,0-0.1,0c-0.1,0-0.1,0-0.2,0c-0.2,0-0.4-0.1-0.6-0.1c0,0-0.1,0-0.1,0c-0.1,0-0.2,0-0.3,0c-0.2,0-0.3-0.1-0.5-0.1
		c0,0,0,0,0.1,0c0,0,0,0,0,0c8.1,3.1,16.2,6,24.5,8.8c17.5,3.2,28.7-1.4,35.3-9c-0.9,0.3-1.8,0.5-2.8,0.7c-2.1,0.4-4.3,0.4-6.2,0
		c-0.2,0-0.3-0.1-0.5-0.1c-0.3-0.1-0.7-0.1-1-0.2c-0.2-0.1-0.5-0.1-0.7-0.2c-1.4-0.5-2.7-1.2-3.7-2c-0.1-0.1-0.2-0.2-0.3-0.3
		c-0.2-0.1-0.3-0.3-0.5-0.5c-1-1-1.6-2.2-1.8-3.5c-0.9-5.1,4.3-10.3,11.5-11.6c3.7-0.6,7.2-0.2,9.9,1c0.4,0.2,0.7,0.4,1.1,0.6
		c0.3,0.2,0.7,0.4,1,0.7c0.3,0.2,0.5,0.4,0.7,0.6c0,0,0,0,0,0c0,0,0.1,0.1,0.1,0.1c0.4-2.1,0.6-4.2,0.6-6.2
		c0-14.8-0.6-63.9-0.9-115.9c-173.2,37.7-209.8-73.4-209.8-73.4c-28.3-72-69.1-91.1-69.1-91.1c-56.5-38.6,4.3-37.8,4.3-37.8
		c62.5,4.4,95.4,64.2,95.4,64.2c55.5,95.2,145.6,67.7,181.2,51.8c5.6-40.2,21.7-67.7,39.5-83.2c-138.3-15.8-283.6-69.1-283.6-307.7
		c0-68,24.3-123.5,64.1-167.1c-6.5-15.7-27.8-79,6-164.8c0,0,52.3-16.7,171.2,63.8c49.7-13.8,102.9-20.7,155.8-20.9
		c52.9,0.2,106.2,7.1,156,20.9c118.8-80.6,171-63.8,171-63.8c33.9,85.8,12.6,149.1,6.1,164.8c13.8,15.1,25.7,31.6,35.4,49.5V489.7
		C1105.1,413.9,977.8,369,839.9,369z M488.2,1484.4c1-0.7,2.1-1,3.3-1.1c0.3,0,0.7,0,1,0c3.3,0.3,6.9,2.6,9.5,6.3
		c3.8,5.6,3.8,12.3-0.1,15c-0.5,0.4-1.1,0.6-1.7,0.8c-0.2,0-0.3,0.1-0.5,0.1c-0.1,0-0.2,0.1-0.4,0.1c-1.3,0.2-2.8,0-4.3-0.6
		c-0.2-0.1-0.5-0.2-0.8-0.3c-2.3-1-4.6-2.9-6.3-5.5C484.4,1493.7,484.4,1487.1,488.2,1484.4z M464.8,1457.1c0,0,0-0.1,0-0.1
		c0-0.1,0-0.2,0.1-0.3c0,0,0,0,0,0c0-0.1,0-0.2,0.1-0.3c0.2-0.7,0.5-1.4,1-2c0-0.1,0.1-0.1,0.2-0.2c0.1-0.1,0.2-0.2,0.3-0.4
		c1-0.9,2.2-1.4,3.6-1.5c0.3,0,0.7,0,1,0c0.2,0,0.3,0,0.5,0c2.4,0.3,5,1.6,7.2,3.8c0.2,0.2,0.3,0.3,0.5,0.5c0.4,0.4,0.7,0.8,1,1.2
		c0.2,0.2,0.3,0.4,0.5,0.6c0.1,0.1,0.2,0.3,0.3,0.4c0.6,0.9,1.1,1.9,1.4,2.9c0.1,0.2,0.1,0.4,0.2,0.5c0.1,0.2,0.1,0.4,0.1,0.5
		c0,0.2,0.1,0.4,0.1,0.5c0,0.2,0.1,0.3,0.1,0.5c0,0.1,0,0.2,0,0.3c0,0.2,0,0.4,0,0.6v0c0,0.2,0,0.5,0,0.7c0,0.2-0.1,0.5-0.1,0.7
		c0,0.2-0.1,0.4-0.1,0.6s-0.1,0.4-0.2,0.6c-0.1,0.3-0.3,0.6-0.5,0.9c0,0.1-0.1,0.2-0.2,0.3c-0.2,0.3-0.5,0.6-0.8,0.8
		c-1.4,1.3-3.5,1.8-5.8,1.3c-0.2,0-0.3-0.1-0.5-0.1c-0.2,0-0.4-0.1-0.6-0.2c-0.2-0.1-0.4-0.1-0.6-0.2c-0.4-0.1-0.8-0.3-1.1-0.5
		c-0.2-0.1-0.4-0.2-0.6-0.3c0,0-0.1,0-0.1,0c-0.2-0.1-0.3-0.2-0.5-0.3c-0.3-0.2-0.6-0.4-0.9-0.6c-0.5-0.4-1.1-0.8-1.5-1.3
		c-0.2-0.2-0.4-0.4-0.6-0.6c-0.6-0.6-1.1-1.3-1.6-2c-1-1.5-1.7-3.2-1.9-4.7c0-0.1,0-0.1,0-0.2c0-0.2-0.1-0.5-0.1-0.7
		c0-0.1,0-0.1,0-0.1c0-0.3,0-0.6,0-0.9C464.7,1457.7,464.7,1457.4,464.8,1457.1z M433.8,1436.3c0.1-0.5,0.2-0.9,0.4-1.4
		c1.3-3.2,6.2-4.1,10.7-1.9c4.5,2,7.1,6.3,5.5,9.4c-0.2,0.4-0.4,0.7-0.6,1c0,0,0,0,0,0c0,0-0.1,0.1-0.1,0.1c0,0-0.1,0.1-0.1,0.1
		c-0.2,0.2-0.4,0.4-0.6,0.5c-2.1,1.6-5.8,1.8-9.3,0.2c-3.6-1.7-6-4.8-5.9-7.6C433.8,1436.6,433.8,1436.4,433.8,1436.3z"/>
	<path class="st2" d="M1462.4,992.2c0,206-100,388.6-254.1,501.9v-379c18.1-40.3,28.7-91.1,28.7-155.5c0-44.5-10.4-83.6-28.7-117.6
		v-67h215.4C1448.8,842.5,1462.4,915.5,1462.4,992.2z"/>
	<path class="st3" d="M450.5,1442.3c-1.4,3.1-6.2,4-10.7,1.9c-4.5-2-7.1-6.3-5.6-9.4c1.3-3.2,6.2-4.1,10.7-1.9
		C449.4,1435,452,1439.2,450.5,1442.3z"/>
	<path class="st3" d="M481.1,1469.6c-3,2.8-8.8,1.5-12.7-2.9c-4.1-4.3-4.8-10.1-1.8-12.9c3.1-2.8,8.7-1.5,12.8,2.9
		C483.4,1461.1,484.2,1466.9,481.1,1469.6z"/>
	<path class="st3" d="M502.1,1504.6c-3.8,2.7-10.1,0.2-13.9-5.4c-3.8-5.5-3.8-12.2,0.1-14.8c3.9-2.7,10-0.3,13.9,5.2
		C506,1495.3,506,1501.9,502.1,1504.6z"/>
	<path class="st3" d="M539.1,1536.9c-6.6-3.6-13.1-7.4-19.5-11.3c3.8-2.2,10-0.9,14.6,3.6C536.7,1531.5,538.3,1534.2,539.1,1536.9z"
		/>
	<path class="st3" d="M583.5,1558.8c0,0.1-0.1,0.2-0.1,0.3c-8-3.6-15.8-7.3-23.6-11.3c2.9-2.6,8.2-3.5,13.5-1.8
		C580.4,1548.1,585,1553.8,583.5,1558.8z"/>
	<path class="st3" d="M635.8,1564.6c0.2,5.1-5.8,9.4-13.2,9.5c-1.4,0-2.8-0.1-4.1-0.4c-1.7-0.6-3.3-1.3-4.9-1.9
		c-2.7-1.7-4.4-4.1-4.5-6.8c0-5.2,5.9-9.4,13.3-9.5C629.7,1555.3,635.8,1559.5,635.8,1564.6z"/>
	<path class="st3" d="M685,1558.7c-0.9,5.2-3.1,10.4-6.7,14.7c-0.9,0.3-1.8,0.6-2.8,0.7c-7.2,1.3-13.9-1.8-14.8-6.7
		c-0.9-5.1,4.3-10.3,11.5-11.6C677.5,1554.9,682.3,1556.1,685,1558.7z"/>
	<path class="st3" d="M444.9,1432.9c-4.5-2.1-9.4-1.2-10.7,1.9c-1.5,3.1,1.1,7.3,5.6,9.4c4.4,2.1,9.3,1.2,10.7-1.9
		C452,1439.2,449.4,1435,444.9,1432.9z M479.3,1456.7c-4.1-4.3-9.7-5.6-12.8-2.9c-3,2.8-2.2,8.6,1.8,12.9c3.9,4.3,9.7,5.6,12.7,2.9
		C484.2,1466.9,483.4,1461.1,479.3,1456.7z M502.2,1489.6c-3.9-5.5-10-7.9-13.9-5.2c-3.9,2.7-3.9,9.3-0.1,14.8
		c3.9,5.5,10.1,8,13.9,5.4C506,1501.9,506,1495.3,502.2,1489.6z M539.1,1536.9c-0.8-2.7-2.4-5.4-4.9-7.7c-4.7-4.4-10.8-5.8-14.6-3.6
		c-0.5,0.3-1.1,0.7-1.5,1.2c-3.4,3.8-1.9,10.9,3.5,15.9c5.3,5.1,12.6,6.1,16,2.4l0,0C539.6,1543.1,540,1540,539.1,1536.9z
		 M573.3,1546c-5.3-1.7-10.6-0.8-13.5,1.8c-1,0.9-1.7,1.9-2.1,3.2c-1.4,4.9,3.2,10.6,10.2,12.8c6.9,2,13.7,0,15.4-4.7
		c0.1-0.1,0.1-0.2,0.1-0.3C585,1553.8,580.4,1548.1,573.3,1546z M622.3,1555.5c-7.4,0.1-13.3,4.3-13.3,9.5c0,2.7,1.8,5.1,4.5,6.8
		c1.4,0.9,3.1,1.5,4.9,1.9c1.3,0.3,2.7,0.4,4.1,0.4c7.4-0.1,13.4-4.3,13.2-9.5C635.8,1559.5,629.7,1555.3,622.3,1555.5z
		 M687.1,1562.6c-0.3-1.5-1-2.8-2.1-3.8c-2.7-2.6-7.5-3.9-12.8-3c-7.2,1.3-12.5,6.5-11.5,11.6c0.9,5,7.6,8.1,14.8,6.7
		c1-0.2,1.9-0.4,2.8-0.7C684.1,1571.4,687.9,1566.9,687.1,1562.6z"/>
</g>
<path class="st4" d="M1423.7,775h-215.4V666.2h162.4c3.2,5.2,6.4,10.5,9.4,15.8C1397.1,711.6,1411.7,742.7,1423.7,775z"/>
<path class="st5" d="M1370.7,666.2h-162.4V489.7c1.5,1.1,3,2.2,4.5,3.4c30.1,22.6,58.2,47.9,83.7,75.5c22.8,24.6,43.6,51,62.2,79
	c1.4,2,2.7,4.1,4.1,6.2C1365.5,657.9,1368.1,662.1,1370.7,666.2z"/>
<path class="st6" d="M1676.1,666.2V775h-252.4c-12-32.3-26.6-63.4-43.6-92.9c-3.1-5.3-6.2-10.6-9.4-15.8H1676.1z"/>
<path class="st7" d="M2500,297.7V775h-823.9V666.2h-305.4c-41.3-67.2-95-126-157.9-173.2c-1.5-1.1-3-2.2-4.5-3.4v-192H2500z"/>
<path class="st0" d="M2500,1834.4V2432H0v-539.6c0.2-20.5,3.6-47.3,21.1-58c55.2-33.6,168.8,141.3,307.7,176.7
	c100.1,25.5,253.2-11.4,490.4-268.1c16.9-22.7,70.8-88.7,166.7-114.4c136.2-36.6,245.7,37.9,261.5,49
	c205.8,103.5,515.2,221,899,232.1c107.1,3.1,206.8-2.5,297.5-13.1C2462.7,1875.9,2481.3,1855.2,2500,1834.4z"/>
<path class="st0" d="M-0.9,1682c0.6,22.6,0.9,47.2,0.9,72.8V1682H-0.9z"/>
<ellipse class="st7" cx="2006.1" cy="1854.4" rx="493.9" ry="442.9"/>
<rect x="2035.8" y="1845.3" class="st7" width="464.2" height="586.7"/>
<rect x="1512.3" y="1916.3" class="st7" width="729" height="515.7"/>
<rect x="1519" y="2040.8" class="st8" width="670.2" height="391.2"/>
<rect x="674" y="2040.8" class="st1" width="850" height="395.1"/>
<path class="st0" d="M2610.8,1102.6c0,3.9,0.1,7.8,0.2,11.8h-0.2V1102.6z"/>
<path class="st0" d="M4323.2,285.6v31c-7-7.3-14.4-14.3-22-21c-3.8-3.4-7.7-6.7-11.7-9.9h33.7V285.6z"/>
<path class="st0" d="M4301.2,295.5c7.6,6.7,14.9,13.7,22,21v-21H4301.2z"/>
<path class="st0" d="M4323.2,285.6v31c-7-7.3-14.4-14.3-22-21c-3.8-3.4-7.7-6.7-11.7-9.9h33.7V285.6z"/>
</svg>
